<?xml version="1.0" encoding="UTF-8" standalone="no"?>
<!-- Generator: Adobe Illustrator 21.0.0, SVG Export Plug-In . SVG Version: 6.00 Build 0)  -->

<svg
   xmlns:dc="http://purl.org/dc/elements/1.1/"
   xmlns:cc="http://creativecommons.org/ns#"
   xmlns:rdf="http://www.w3.org/1999/02/22-rdf-syntax-ns#"
   xmlns:svg="http://www.w3.org/2000/svg"
   xmlns="http://www.w3.org/2000/svg"
   xmlns:sodipodi="http://sodipodi.sourceforge.net/DTD/sodipodi-0.dtd"
   xmlns:inkscape="http://www.inkscape.org/namespaces/inkscape"
   version="1.1"
   id="Capa_1"
   x="0px"
   y="0px"
   viewBox="0 0 32.860229 43.342549"
   xml:space="preserve"
   width="32.860229"
   height="43.342548"
   sodipodi:docname="message.svg"
   inkscape:version="0.92.4 (5da689c313, 2019-01-14)"><metadata
   id="metadata13"><rdf:RDF><cc:Work
       rdf:about=""><dc:format>image/svg+xml</dc:format><dc:type
         rdf:resource="http://purl.org/dc/dcmitype/StillImage" /><dc:title></dc:title></cc:Work></rdf:RDF></metadata><defs
   id="defs11" /><sodipodi:namedview
   pagecolor="#ffffff"
   bordercolor="#666666"
   borderopacity="1"
   objecttolerance="10"
   gridtolerance="10"
   guidetolerance="10"
   inkscape:pageopacity="0"
   inkscape:pageshadow="2"
   inkscape:window-width="1280"
   inkscape:window-height="737"
   id="namedview9"
   showgrid="false"
   inkscape:zoom="5.2149125"
   inkscape:cx="-16.532485"
   inkscape:cy="30.034267"
   inkscape:window-x="-8"
   inkscape:window-y="-8"
   inkscape:window-maximized="1"
   inkscape:current-layer="g6"
   fit-margin-top="0"
   fit-margin-left="0"
   fit-margin-right="0"
   fit-margin-bottom="0" />
<g
   id="g6"
   transform="translate(-5.2853234,-381.84553)">
	<path
   style="fill:#82bdff;fill-opacity:0.94117647;stroke:none;stroke-width:0.08274003"
   d="m 38.145551,381.84553 -32.8602276,22.19613 8.3075696,4.43416 2.387777,16.41308 5.802888,-8.23888 8.599177,8.53806 1.535625,-8.57325 3.865418,-21.58282 c -0.02678,-0.003 -0.01332,-0.002 9.5e-5,-7.2e-4 z m -2.361659,13.18578 -9.6e-5,7.3e-4 c 0.02693,0.003 0.01348,6.1e-4 9.6e-5,-7.3e-4 z m -8.544468,-2.6301 -12.817924,13.21683 -3.769868,-2.0122 z m 7.559489,-3.37469 -1.119608,6.25112 -3.640313,20.32526 -0.829507,4.63174 -9.739781,-9.67067 z m -8.123049,7.45943 -9.767165,13.72284 -0.403882,3.65059 -0.871091,-5.98762 z m -8.09206,16.98713 1.552951,1.54198 -2.044729,2.90319 z"
   id="path2"
   inkscape:connector-curvature="0" />
	
</g>















</svg>