<?xml version="1.0" encoding="UTF-8" standalone="no"?>
<!-- Generator: Adobe Illustrator 19.1.0, SVG Export Plug-In . SVG Version: 6.00 Build 0)  -->

<svg
   xmlns:dc="http://purl.org/dc/elements/1.1/"
   xmlns:cc="http://creativecommons.org/ns#"
   xmlns:rdf="http://www.w3.org/1999/02/22-rdf-syntax-ns#"
   xmlns:svg="http://www.w3.org/2000/svg"
   xmlns="http://www.w3.org/2000/svg"
   xmlns:sodipodi="http://sodipodi.sourceforge.net/DTD/sodipodi-0.dtd"
   xmlns:inkscape="http://www.inkscape.org/namespaces/inkscape"
   version="1.1"
   id="Capa_1"
   x="0px"
   y="0px"
   viewBox="0 0 19.999998 20"
   xml:space="preserve"
   sodipodi:docname="search.svg"
   inkscape:version="0.92.4 (5da689c313, 2019-01-14)"
   width="19.999998"
   height="20"><metadata
   id="metadata41"><rdf:RDF><cc:Work
       rdf:about=""><dc:format>image/svg+xml</dc:format><dc:type
         rdf:resource="http://purl.org/dc/dcmitype/StillImage" /><dc:title></dc:title></cc:Work></rdf:RDF></metadata><defs
   id="defs39" /><sodipodi:namedview
   pagecolor="#ffffff"
   bordercolor="#666666"
   borderopacity="1"
   objecttolerance="10"
   gridtolerance="10"
   guidetolerance="10"
   inkscape:pageopacity="0"
   inkscape:pageshadow="2"
   inkscape:window-width="1280"
   inkscape:window-height="737"
   id="namedview37"
   showgrid="false"
   inkscape:zoom="0.5232816"
   inkscape:cx="225.45"
   inkscape:cy="225.5"
   inkscape:window-x="-8"
   inkscape:window-y="-8"
   inkscape:window-maximized="1"
   inkscape:current-layer="Capa_1"
   fit-margin-top="0"
   fit-margin-left="0"
   fit-margin-right="0"
   fit-margin-bottom="0" />
<g
   id="g4"
   style="fill:#999999"
   transform="matrix(0.04435573,0,0,0.0443459,-0.00221779,0)">
	<path
   d="M 447.05,428 337.45,318.4 c 29.4,-33.8 47.2,-77.9 47.2,-126.1 C 384.65,86.2 298.35,0 192.35,0 86.25,0 0.05,86.3 0.05,192.3 c 0,106 86.3,192.3 192.3,192.3 48.2,0 92.3,-17.8 126.1,-47.2 L 428.05,447 c 2.6,2.6 6.1,4 9.5,4 3.4,0 6.9,-1.3 9.5,-4 5.2,-5.2 5.2,-13.8 0,-19 z M 26.95,192.3 c 0,-91.2 74.2,-165.3 165.3,-165.3 91.2,0 165.3,74.2 165.3,165.3 0,91.1 -74.1,165.4 -165.3,165.4 -91.1,0 -165.3,-74.2 -165.3,-165.4 z"
   id="path2"
   style="fill:#999999"
   inkscape:connector-curvature="0" />
</g>
<g
   id="g6"
   transform="matrix(1.9999995,0,0,2.0000001,-0.09999997,-882.00004)">
</g>
<g
   id="g8"
   transform="matrix(1.9999995,0,0,2.0000001,-0.09999997,-882.00004)">
</g>
<g
   id="g10"
   transform="matrix(1.9999995,0,0,2.0000001,-0.09999997,-882.00004)">
</g>
<g
   id="g12"
   transform="matrix(1.9999995,0,0,2.0000001,-0.09999997,-882.00004)">
</g>
<g
   id="g14"
   transform="matrix(1.9999995,0,0,2.0000001,-0.09999997,-882.00004)">
</g>
<g
   id="g16"
   transform="matrix(1.9999995,0,0,2.0000001,-0.09999997,-882.00004)">
</g>
<g
   id="g18"
   transform="matrix(1.9999995,0,0,2.0000001,-0.09999997,-882.00004)">
</g>
<g
   id="g20"
   transform="matrix(1.9999995,0,0,2.0000001,-0.09999997,-882.00004)">
</g>
<g
   id="g22"
   transform="matrix(1.9999995,0,0,2.0000001,-0.09999997,-882.00004)">
</g>
<g
   id="g24"
   transform="matrix(1.9999995,0,0,2.0000001,-0.09999997,-882.00004)">
</g>
<g
   id="g26"
   transform="matrix(1.9999995,0,0,2.0000001,-0.09999997,-882.00004)">
</g>
<g
   id="g28"
   transform="matrix(1.9999995,0,0,2.0000001,-0.09999997,-882.00004)">
</g>
<g
   id="g30"
   transform="matrix(1.9999995,0,0,2.0000001,-0.09999997,-882.00004)">
</g>
<g
   id="g32"
   transform="matrix(1.9999995,0,0,2.0000001,-0.09999997,-882.00004)">
</g>
<g
   id="g34"
   transform="matrix(1.9999995,0,0,2.0000001,-0.09999997,-882.00004)">
</g>
</svg>